# xmcd
#
# Track frame offsets:
#	150
#	18352
#	37055
#	57639
#	95800
#	107729
#	125120
#	148956
#	174824
#	189984
#	196787
#	214973
#
# Disc length: 2993 seconds
# Revision: 0
# Processed by: cddbd v1.5.2PL0 Copyright (c) Steve Scherf et al.
# Submitted via: dBpowerAMP V12.0
#
DISCID=b60baf0c
DTITLE=David Jacobs-Strain - Stuck On The Way Back, Santa Fe sessions, Nov01 
DYEAR=2002
DGENRE=Blues
TTITLE0=River Was Green
TTITLE1=Bowlegged Charlie
TTITLE2=Poor Black Mattie
TTITLE3=Poor Boy/Nobody's Fault
TTITLE4=Sidewalk Rag
TTITLE5=Black And Blue
TTITLE6=Dark Horse Blues
TTITLE7=Wild Bill Jones
TTITLE8=Linin' Track
TTITLE9=Old Man Dancing
TTITLE10=Cold Mountain Blues
TTITLE11=Broken Wings
EXTD=
EXTT0=
EXTT1=
EXTT2=
EXTT3=
EXTT4=
EXTT5=
EXTT6=
EXTT7=
EXTT8=
EXTT9=
EXTT10=
EXTT11=
PLAYORDER=
